<svg width="20" height="20" viewBox="0 0 20 20" fill="none" xmlns="http://www.w3.org/2000/svg">
<path d="M14.375 11.75V17M11.75 14.375H17M4.75 8.25H6.5C7.4665 8.25 8.25 7.4665 8.25 6.5V4.75C8.25 3.7835 7.4665 3 6.5 3H4.75C3.7835 3 3 3.7835 3 4.75V6.5C3 7.4665 3.7835 8.25 4.75 8.25ZM13.5 8.25H15.25C16.2165 8.25 17 7.4665 17 6.5V4.75C17 3.7835 16.2165 3 15.25 3H13.5C12.5335 3 11.75 3.7835 11.75 4.75V6.5C11.75 7.4665 12.5335 8.25 13.5 8.25ZM4.75 17H6.5C7.4665 17 8.25 16.2165 8.25 15.25V13.5C8.25 12.5335 7.4665 11.75 6.5 11.75H4.75C3.7835 11.75 3 12.5335 3 13.5V15.25C3 16.2165 3.7835 17 4.75 17Z" stroke="#1D2939" stroke-width="1.67" stroke-linecap="round" stroke-linejoin="round"/>
</svg>
